<svg width="157" height="53" viewBox="0 0 157 53" fill="none" xmlns="http://www.w3.org/2000/svg">
<path d="M3.75 5.15625C3.75 4.70041 3.56892 4.26324 3.24659 3.94091C2.92426 3.61858 2.48709 3.4375 2.03125 3.4375C1.57541 3.4375 1.13824 3.61858 0.815911 3.94091C0.493583 4.26324 0.3125 4.70041 0.3125 5.15625V15.4688C0.312096 17.4499 0.99619 19.3703 2.24901 20.905C3.50182 22.4397 5.2464 23.4944 7.1875 23.8906V49.8438C7.1875 50.2996 7.36858 50.7368 7.69091 51.0591C8.01324 51.3814 8.45041 51.5625 8.90625 51.5625C9.36209 51.5625 9.79926 51.3814 10.1216 51.0591C10.4439 50.7368 10.625 50.2996 10.625 49.8438V23.8906C12.5661 23.4944 14.3107 22.4397 15.5635 20.905C16.8163 19.3703 17.5004 17.4499 17.5 15.4688V5.15625C17.5 4.70041 17.3189 4.26324 16.9966 3.94091C16.6743 3.61858 16.2371 3.4375 15.7812 3.4375C15.3254 3.4375 14.8882 3.61858 14.5659 3.94091C14.2436 4.26324 14.0625 4.70041 14.0625 5.15625V15.4688C14.0631 16.5355 13.7327 17.5762 13.1171 18.4473C12.5014 19.3185 11.6307 19.9772 10.625 20.3328V5.15625C10.625 4.70041 10.4439 4.26324 10.1216 3.94091C9.79926 3.61858 9.36209 3.4375 8.90625 3.4375C8.45041 3.4375 8.01324 3.61858 7.69091 3.94091C7.36858 4.26324 7.1875 4.70041 7.1875 5.15625V20.3328C6.18176 19.9772 5.31107 19.3185 4.69541 18.4473C4.07975 17.5762 3.74944 16.5355 3.75 15.4688V5.15625ZM27.8125 49.8438V27.5H22.6562C22.2004 27.5 21.7632 27.3189 21.4409 26.9966C21.1186 26.6743 20.9375 26.2371 20.9375 25.7812V12.0312C20.9375 9.75219 22.0581 7.62094 23.5878 6.08781C25.1209 4.55813 27.2522 3.4375 29.5312 3.4375C29.9871 3.4375 30.4243 3.61858 30.7466 3.94091C31.0689 4.26324 31.25 4.70041 31.25 5.15625V49.8438C31.25 50.2996 31.0689 50.7368 30.7466 51.0591C30.4243 51.3814 29.9871 51.5625 29.5312 51.5625C29.0754 51.5625 28.6382 51.3814 28.3159 51.0591C27.9936 50.7368 27.8125 50.2996 27.8125 49.8438Z" fill="black"/>
<path d="M59.4 9.52H67.8L80.6 31.36H71.4L63.6 17.08L55.8 31.36H46.6L59.4 9.52ZM47 37.16H80.2V43.36H47V37.16ZM117.388 9.52V20.64H84.1875V9.52H117.388ZM100.788 20.24C100.788 18.32 101.988 17 104.388 16.28C106.788 15.5333 110.374 15.1333 115.148 15.08C110.374 15.0267 106.788 14.64 104.388 13.92C101.988 13.1733 100.788 11.84 100.788 9.92C100.788 11.84 99.5875 13.1733 97.1875 13.92C94.7875 14.64 91.1875 15.0267 86.3875 15.08C91.1875 15.1333 94.7875 15.5333 97.1875 16.28C99.5875 17 100.788 18.32 100.788 20.24ZM84.1875 21.48H117.388V26.8H112.188V27.76H117.388V36.2C115.334 36.4933 113.321 36.7467 111.348 36.96C109.374 37.1467 107.374 37.3067 105.348 37.44C103.321 37.5733 101.228 37.6667 99.0675 37.72C96.9075 37.7733 94.6142 37.8 92.1875 37.8V38.68C94.6142 38.68 96.9075 38.6533 99.0675 38.6C101.254 38.5467 103.374 38.4667 105.428 38.36C107.481 38.2267 109.494 38.0533 111.468 37.84C113.468 37.6267 115.508 37.3733 117.588 37.08V43.36H84.1875V33.28H109.388V32.44H84.1875V27.76H89.3875V26.8H84.1875V21.48ZM97.3875 27.76H104.188V26.8H97.3875V27.76ZM121.375 16.04H130.375V15.12H121.375V9.52H137.335V20.4C136.295 20.7467 134.948 21.0267 133.295 21.24C131.668 21.4267 130.015 21.52 128.335 21.52V22.48C130.015 22.48 131.695 22.4 133.375 22.24C135.082 22.0533 136.602 21.7333 137.935 21.28V28.08H121.375V16.04ZM138.935 9.52H145.895V15.08H147.615V9.52H154.575V28.08H147.615V21.88H145.895V28.08H138.935V9.52ZM154.775 36.32C154.775 38.5333 154.162 40.2533 152.935 41.48C151.735 42.7333 149.922 43.36 147.495 43.36H128.455C126.028 43.36 124.202 42.7333 122.975 41.48C121.775 40.2533 121.175 38.5333 121.175 36.32C121.175 34.1067 121.775 32.3867 122.975 31.16C124.202 29.9067 126.028 29.28 128.455 29.28H147.495C149.922 29.28 151.735 29.9067 152.935 31.16C154.162 32.3867 154.775 34.1067 154.775 36.32ZM137.975 30.04C137.948 30.9733 137.735 31.8267 137.335 32.6C136.935 33.3467 136.242 34 135.255 34.56C134.295 35.0933 132.975 35.52 131.295 35.84C129.642 36.1333 127.522 36.2933 124.935 36.32C127.522 36.3467 129.642 36.52 131.295 36.84C132.975 37.1333 134.295 37.56 135.255 38.12C136.242 38.6533 136.935 39.2933 137.335 40.04C137.735 40.8133 137.948 41.6667 137.975 42.6C138.002 41.6667 138.202 40.8133 138.575 40.04C138.975 39.2933 139.668 38.6533 140.655 38.12C141.642 37.56 142.962 37.1333 144.615 36.84C146.295 36.52 148.428 36.3467 151.015 36.32C148.428 36.2933 146.295 36.1333 144.615 35.84C142.962 35.52 141.642 35.0933 140.655 34.56C139.668 34 138.975 33.3467 138.575 32.6C138.202 31.8267 138.002 30.9733 137.975 30.04Z" fill="black"/>
</svg>
