<svg width="30" height="30" viewBox="0 0 30 30" fill="none" xmlns="http://www.w3.org/2000/svg">
<path d="M8.4375 9.375C8.4375 11.1155 9.1289 12.7847 10.3596 14.0154C11.5903 15.2461 13.2595 15.9375 15 15.9375C16.7405 15.9375 18.4097 15.2461 19.6404 14.0154C20.8711 12.7847 21.5625 11.1155 21.5625 9.375C21.5625 7.63452 20.8711 5.96532 19.6404 4.73461C18.4097 3.5039 16.7405 2.8125 15 2.8125C13.2595 2.8125 11.5903 3.5039 10.3596 4.73461C9.1289 5.96532 8.4375 7.63452 8.4375 9.375ZM24.375 27.1875H4.6875C4.43886 27.1875 4.2004 27.0887 4.02459 26.9129C3.84877 26.7371 3.75 26.4986 3.75 26.25V23.4375C3.75 22.1943 4.24386 21.002 5.12294 20.1229C6.00201 19.2439 7.1943 18.75 8.4375 18.75H21.5625C22.8057 18.75 23.998 19.2439 24.8771 20.1229C25.7561 21.002 26.25 22.1943 26.25 23.4375V26.25C26.25 26.4986 26.1512 26.7371 25.9754 26.9129C25.7996 27.0887 25.5611 27.1875 25.3125 27.1875H24.375Z" fill="black"/>
</svg>
